<svg xmlns="http://www.w3.org/2000/svg" version="1.1" xmlns:xlink="http://www.w3.org/1999/xlink" xmlns:svgjs="http://svgjs.com/svgjs" width="1603" height="1160" preserveAspectRatio="none" viewBox="0 0 1603 1160"><g mask="url(&quot;#SvgjsMask2759&quot;)" fill="none"><rect width="1603" height="1160" x="0" y="0" fill="rgba(247, 220, 102, 0.39)"></rect><path d="M295.63 79.08L405.04 79.08L405.04 188.49L295.63 188.49z" stroke="rgba(192, 167, 78, 1)"></path><path d="M114.02 483.15L211.71 483.15L211.71 580.84L114.02 580.84z" stroke="rgba(192, 167, 78, 1)"></path><path d="M216.62 124.27L296.95 124.27L296.95 235.02L216.62 235.02z" fill="rgba(192, 167, 78, 1)"></path><path d="M486.54 1072.05a17.52 17.52 0 1 0-14.52 31.89z" fill="rgba(192, 167, 78, 1)"></path><path d="M1139.27 315.47L1152.05 315.47L1152.05 328.25L1139.27 328.25z" fill="rgba(192, 167, 78, 1)"></path><path d="M1189.72 124.85L1299.07 124.85L1299.07 166.6L1189.72 166.6z" fill="rgba(192, 167, 78, 1)"></path><path d="M903.37 963.51 a53.98 53.98 0 1 0 107.96 0 a53.98 53.98 0 1 0 -107.96 0z" fill="rgba(192, 167, 78, 1)"></path><path d="M273.46 550.82L300.93 550.82L300.93 654.11L273.46 654.11z" fill="rgba(192, 167, 78, 1)"></path><path d="M509.96 555.66 a42 42 0 1 0 84 0 a42 42 0 1 0 -84 0z" stroke="rgba(192, 167, 78, 1)"></path><path d="M500.87 1077.36L528.42 1077.36L528.42 1095.55L500.87 1095.55z" fill="rgba(192, 167, 78, 1)"></path><path d="M189.4 642.66 a115.06 115.06 0 1 0 230.12 0 a115.06 115.06 0 1 0 -230.12 0z" stroke="rgba(192, 167, 78, 1)"></path><path d="M138.74 1079.1L148.76 1079.1L148.76 1106.72L138.74 1106.72z" stroke="rgba(192, 167, 78, 1)"></path><path d="M942.54 983.53L1000.66 983.53L1000.66 988.9L942.54 988.9z" fill="rgba(192, 167, 78, 1)"></path><path d="M1446.2 810.27 a90.58 90.58 0 1 0 181.16 0 a90.58 90.58 0 1 0 -181.16 0z" fill="rgba(192, 167, 78, 1)"></path><path d="M1374.45 1012.33L1481.2 1012.33L1481.2 1015.07L1374.45 1015.07z" fill="rgba(192, 167, 78, 1)"></path><path d="M1031.97 928.38 a98.1 98.1 0 1 0 196.2 0 a98.1 98.1 0 1 0 -196.2 0z" stroke="rgba(192, 167, 78, 1)"></path><path d="M914.07 955.95 a83.73 83.73 0 1 0 167.46 0 a83.73 83.73 0 1 0 -167.46 0z" fill="rgba(192, 167, 78, 1)"></path><path d="M950.03 1069.41L980.83 1069.41L980.83 1100.21L950.03 1100.21z" stroke="rgba(192, 167, 78, 1)"></path></g><defs><mask id="SvgjsMask2759"><rect width="1603" height="1160" fill="#ffffff"></rect></mask></defs></svg>